<svg width="35" height="27" viewBox="0 0 35 27" fill="none" xmlns="http://www.w3.org/2000/svg">
    <g clip-path="url(#clip0_241_218)">
    <path d="M12.4342 12.5688L11.0259 16.8302L16.6618 15.7646L25.117 9.37287L20.8894 6.177L12.4342 12.5688Z" stroke="white" stroke-width="3.13" stroke-linecap="round" stroke-linejoin="round"/>
    <path d="M30.05 5.64502L31.4583 6.70964C31.6435 6.84955 31.7905 7.01568 31.8906 7.19852C31.991 7.38136 32.0425 7.57734 32.0425 7.77526C32.0425 7.97319 31.991 8.16917 31.8906 8.35201C31.7905 8.53486 31.6435 8.70098 31.4583 8.84088L27.0593 12.1653" stroke="white" stroke-width="3.13" stroke-linecap="round" stroke-linejoin="round"/>
    <path d="M25.1168 9.37295L30.0498 5.64477C30.4234 5.36225 30.6334 4.97913 30.6334 4.57965C30.6334 4.18017 30.4234 3.79705 30.0498 3.51453L28.6402 2.44891C28.2665 2.16647 27.7597 2.00781 27.2312 2.00781C26.7028 2.00781 26.196 2.16647 25.8222 2.44891L20.8892 6.17608" stroke="white" stroke-width="3.13" stroke-linecap="round" stroke-linejoin="round"/>
    <path d="M26.0627 15.5668V23.0995C26.0627 23.499 25.8528 23.8823 25.4791 24.1648C25.1053 24.4473 24.5983 24.606 24.0698 24.606H4.14085C3.6123 24.606 3.10539 24.4473 2.73166 24.1648C2.35791 23.8823 2.14795 23.499 2.14795 23.0995V8.03412C2.14795 7.63457 2.35791 7.25137 2.73166 6.96884C3.10539 6.68632 3.6123 6.52759 4.14085 6.52759H14.1053" stroke="white" stroke-width="3.13" stroke-linecap="round" stroke-linejoin="round"/>
    </g>
    <defs>
    <clipPath id="clip0_241_218">
    <rect width="34.0158" height="25.7143" fill="white" transform="translate(0.0869141 0.449951)"/>
    </clipPath>
    </defs>
    </svg>
    