<svg width="30" height="30" viewBox="0 0 30 30" fill="none" xmlns="http://www.w3.org/2000/svg">
    <g clip-path="url(#clip0_241_189)">
    <path d="M8.02491 13.125H13.1249L10.9687 9.975C10.4598 9.28929 9.81501 8.7158 9.07466 8.2903C8.3343 7.86479 7.51421 7.59641 6.66554 7.50187L5.62491 7.5V10.3875C5.56663 10.724 5.58269 11.0691 5.67197 11.3987C5.76125 11.7283 5.92157 12.0343 6.1417 12.2954C6.36183 12.5564 6.63642 12.7661 6.9462 12.9098C7.25598 13.0534 7.59345 13.1275 7.93491 13.1269L8.02866 13.125H8.02491ZM24.3749 13.125V12.5813C24.3751 11.7412 24.0455 10.9346 23.4571 10.335C22.8688 9.73545 22.0686 9.39072 21.2287 9.375H12.4312C13.3687 10.5375 14.9999 13.125 14.9999 13.125H24.3749Z" fill="#776B5D"/>
    <path d="M28.125 9.5625C27.6277 9.5625 27.1508 9.76004 26.7992 10.1117C26.4475 10.4633 26.25 10.9402 26.25 11.4375V15H3.75V7.5C3.75 7.00272 3.55246 6.52581 3.20083 6.17417C2.84919 5.82254 2.37228 5.625 1.875 5.625C1.37772 5.625 0.900806 5.82254 0.549175 6.17417C0.197544 6.52581 0 7.00272 0 7.5L0 24.375H3.75V20.625H26.25V24.375H30V11.4375C30 10.9402 29.8025 10.4633 29.4508 10.1117C29.0992 9.76004 28.6223 9.5625 28.125 9.5625Z" fill="#776B5D"/>
    </g>
    <defs>
    <clipPath id="clip0_241_189">
    <rect width="30" height="30" fill="white"/>
    </clipPath>
    </defs>
    </svg>
    