<svg width="23" height="23" viewBox="0 0 23 23" fill="none" xmlns="http://www.w3.org/2000/svg">
    <g clip-path="url(#clip0_241_195)">
    <path d="M5.36116 5.72295C5.19261 5.81675 5.13295 6.02914 5.22711 6.19697L6.10578 7.76779C6.16903 7.88172 6.28763 7.94604 6.40981 7.94604C6.46731 7.94604 6.52553 7.93167 6.5798 7.90148C6.74762 7.80769 6.808 7.59494 6.71384 7.42711L5.83517 5.85628C5.74102 5.68881 5.5297 5.6288 5.36116 5.72295ZM6.3038 5.03403C6.15142 5.15083 6.12195 5.36933 6.23839 5.52242L7.32909 6.95345C7.39773 7.0433 7.50159 7.09037 7.60689 7.09037C7.67984 7.09037 7.75423 7.06701 7.81748 7.01922C7.97058 6.90242 8.00005 6.68392 7.88361 6.53083L6.79219 5.09979C6.67575 4.94706 6.45761 4.91723 6.3038 5.03403ZM8.72203 6.248C8.80756 6.248 8.89273 6.21709 8.95994 6.15456C9.10045 6.02339 9.108 5.80273 8.97683 5.66186L7.74992 4.34547C7.61875 4.20459 7.39773 4.19704 7.25722 4.32822C7.11598 4.45939 7.10844 4.68005 7.23961 4.82092L8.46723 6.13731C8.53588 6.21098 8.62859 6.248 8.72203 6.248ZM22.6518 0.444092H0.348953C0.157406 0.444092 0 0.601139 0 0.792686C0 0.984232 0.157406 1.14128 0.348953 1.14128H12.4412V2.02319H13.138V1.14128H13.9394V2.02319H14.6363V1.14128H15.4377V2.02319H16.1341V1.14128H16.9355V2.02319H17.6324V1.14128H18.4374V2.02319H19.1342V1.14128H19.817V2.02319H20.5138V1.14128H22.6503C22.8419 1.14128 22.9986 0.984232 22.9986 0.792686C22.9986 0.601139 22.8433 0.444092 22.6518 0.444092ZM13.2113 17.3807C13.1937 17.325 13.1869 17.2657 13.1973 17.21C13.1865 17.2654 13.1901 17.3247 13.2113 17.3807ZM13.2498 16.966V2.71965H12.8243H12.7549H12.3294V16.966C12.3294 17.2168 12.535 17.426 12.7891 17.426C12.9806 17.426 13.1449 17.3074 13.2146 17.1439C13.2358 17.0878 13.2498 17.0285 13.2498 16.966Z" fill="#776B5D"/>
    <path d="M11.6326 13.1778H2.49517V12.8296V12.481V11.8284H3.33826C3.53053 11.8284 3.6865 11.6724 3.6865 11.4798C3.6865 11.2875 3.53053 11.1315 3.33826 11.1315H2.49517V5.2953C2.49517 5.28488 2.44306 4.38213 2.97961 3.7791C3.18517 3.5491 3.45326 3.38522 3.78461 3.29466C3.67284 3.90811 3.89278 4.61213 4.41567 5.13825C4.48503 5.20797 4.57236 5.23924 4.66292 5.23924C4.75348 5.23924 4.84045 5.20797 4.91053 5.13825L6.86876 3.17966C7.00497 3.04381 7.00497 2.82424 6.86876 2.68839C6.07778 1.89741 4.88573 1.80325 4.21011 2.47924C4.19609 2.49325 4.18207 2.50727 4.17165 2.52092C3.44643 2.58381 2.86784 2.85227 2.45671 3.3191C1.72179 4.14853 1.79834 5.2953 1.79834 5.31938V11.1315H0.978606C0.78634 11.1315 0.630371 11.2875 0.630371 11.4798C0.630371 11.6724 0.78634 11.8284 0.978606 11.8284H1.79834V12.481V12.8296V13.1778H0.979324C0.822637 13.1778 0.697215 13.3033 0.697215 13.4603C0.697215 13.6138 0.82623 13.7428 0.979324 13.7428H11.633L11.6326 13.1778ZM14.7028 17.1716C14.71 17.1543 14.7168 17.1403 14.724 17.1227C14.7416 17.0738 14.7513 17.0181 14.7513 16.966V2.71966H14.3233H14.2528H13.9467V16.966C13.9467 17.0602 13.9362 17.1471 13.915 17.2345C13.929 17.2553 13.9431 17.2725 13.9635 17.2938C14.0505 17.3811 14.1659 17.4296 14.2877 17.4296C14.4656 17.4296 14.6226 17.3283 14.7028 17.1716ZM16.2118 17.1439C16.2118 17.1403 16.2154 17.1367 16.219 17.1299C16.2359 17.081 16.2463 17.0217 16.2463 16.966V2.71966H15.8215H15.7514H15.4481V16.966C15.4481 17.0566 15.4384 17.1507 15.4136 17.2377C15.4276 17.2549 15.4409 17.2758 15.4585 17.2934C15.5491 17.3807 15.6641 17.4292 15.7863 17.4292C15.971 17.4296 16.1417 17.3178 16.2118 17.1439ZM17.7104 17.1471C17.714 17.1331 17.7201 17.1227 17.7237 17.109C17.7413 17.0638 17.7481 17.0149 17.7481 16.9664V2.71966H17.3201H17.25H16.9431V16.966C16.9431 17.0566 16.9327 17.1471 16.9122 17.2345C16.9255 17.2553 16.9431 17.2761 16.9607 17.2938C17.0477 17.3811 17.1631 17.4296 17.2849 17.4296C17.4768 17.4296 17.6403 17.311 17.7104 17.1471ZM18.7522 2.71966H18.4453V16.966C18.4453 17.0602 18.4349 17.1471 18.4108 17.2345C18.4241 17.2553 18.4381 17.2725 18.4593 17.2938C18.5287 17.3602 18.6088 17.4019 18.6965 17.4192C18.7037 17.4192 18.7069 17.4228 18.7134 17.4228C18.7206 17.4228 18.7274 17.4264 18.7346 17.4228C18.7558 17.4264 18.7698 17.43 18.7871 17.43C18.9438 17.43 19.0868 17.3498 19.1738 17.2172C19.1738 17.2136 19.1774 17.2104 19.1809 17.2068C19.2223 17.1335 19.2471 17.0533 19.2471 16.9664V2.71966H18.8216H18.7522ZM20.1322 2.71966H19.9443V16.966C19.9443 17.0914 19.9231 17.2133 19.8853 17.3283C19.9655 17.3944 20.0629 17.4292 20.1674 17.4292C20.4215 17.4292 20.6271 17.2201 20.6271 16.9656V2.71966H20.2016H20.1322ZM4.98061 21.11L4.61764 21.0945V21.9635C4.61764 22.2901 4.88142 22.5557 5.20665 22.5557H5.40179C5.72595 22.5557 5.99081 22.2898 5.99081 21.9635V21.1168H5.20665C5.13514 21.1164 5.0629 21.1132 4.98061 21.11ZM14.6837 21.1103C14.6122 21.1132 14.5407 21.1164 14.4688 21.1164H13.685V21.9631C13.685 22.2898 13.9474 22.5554 14.2704 22.5554H14.4692C14.7941 22.5554 15.0582 22.2894 15.0582 21.9631V21.4578L15.0471 21.0945L14.6837 21.1103Z" fill="#776B5D"/>
    <path d="M17.2852 18.1265C17.0099 18.1265 16.7447 18.0291 16.5356 17.8476C16.3332 18.0255 16.0687 18.1265 15.7866 18.1265C15.5081 18.1265 15.2461 18.0291 15.0377 17.8476C14.8354 18.0255 14.5701 18.1265 14.288 18.1265C14.0059 18.1265 13.7446 18.0291 13.5391 17.8476C13.3368 18.0184 13.0751 18.1229 12.7894 18.1229C12.1523 18.1229 11.6326 17.6036 11.6326 16.9661V14.4397H1.32788V17.2381C1.32788 19.1619 2.76322 20.8136 4.66612 21.0784C4.6733 21.0784 4.68013 21.082 4.68732 21.082C4.86485 21.1029 5.03555 21.1169 5.20662 21.1169H14.4688C14.6535 21.1169 14.8354 21.1029 15.0057 21.0752C16.6502 20.8488 17.9536 19.6046 18.271 18.0051C18.1876 17.963 18.1111 17.9109 18.0374 17.848C17.8354 18.0219 17.5709 18.1265 17.2852 18.1265Z" fill="#776B5D"/>
    </g>
    <defs>
    <clipPath id="clip0_241_195">
    <rect width="23" height="23" fill="white"/>
    </clipPath>
    </defs>
    </svg>
    